<svg xmlns="http://www.w3.org/2000/svg" version="1.1" xmlns:xlink="http://www.w3.org/1999/xlink" width="512" height="512" x="0" y="0" viewBox="0 0 510.948 510.948" style="enable-background:new 0 0 512 512" xml:space="preserve" class=""><g><path d="M500.261 265.614H371.313a10.665 10.665 0 0 0-10.49 8.74c-2.74 14.865-8.438 28.667-16.948 41.021a10.66 10.66 0 0 0 1.24 13.594l91.198 91.198c2 2.01 4.719 3.125 7.542 3.125.156 0 .313 0 .458-.01a10.66 10.66 0 0 0 7.708-3.792c33.969-40.448 54.333-89.656 58.865-142.292a10.657 10.657 0 0 0-10.625-11.584zm-57.292 131.042-76.719-76.719a125.851 125.851 0 0 0 13.635-32.99h108.458c-5.426 40.021-20.957 77.553-45.374 109.709z" fill="#ffffff" opacity="1" data-original="#000000" class=""></path><path d="M330.032 344.052c-3.646-3.635-9.365-4.177-13.594-1.24-17.865 12.302-38.76 18.802-60.427 18.802-58.813 0-106.667-47.854-106.667-106.667 0-51.438 36.698-95.51 87.26-104.813a10.665 10.665 0 0 0 8.74-10.49V10.697c0-2.99-1.25-5.844-3.458-7.865-2.198-2.031-5.177-3.135-8.125-2.76C102.688 11.375.011 123.333.011 254.947c0 141.156 114.844 256 256 256 60.052 0 118.49-21.302 164.542-59.99a10.685 10.685 0 0 0 3.792-7.708c.125-2.979-1-5.885-3.115-8l-91.198-91.197zm-74.021 145.562c-129.396 0-234.667-105.271-234.667-234.667 0-116.74 88.115-216.604 202.667-232.333v108.458c-56.135 14.406-96 65.146-96 123.875 0 70.583 57.417 128 128 128 23.021 0 45.313-6.115 64.99-17.75l76.708 76.708c-40.667 30.845-90.542 47.709-141.698 47.709z" fill="#ffffff" opacity="1" data-original="#000000" class=""></path><path d="M275.417 150.135c43.146 7.938 77.469 42.26 85.406 85.406a10.665 10.665 0 0 0 10.49 8.74h128.958c2.99 0 5.844-1.25 7.865-3.458a10.628 10.628 0 0 0 2.76-8.125C500.177 108.614 402.344 10.781 278.261.072c-2.896-.271-5.927.74-8.125 2.76a10.656 10.656 0 0 0-3.458 7.865v128.948a10.663 10.663 0 0 0 8.739 10.49zm12.594-127.521c104.354 14.167 186.167 95.969 200.344 200.333h-108.48c-11.583-44.771-47.094-80.281-91.865-91.865V22.614z" fill="#ffffff" opacity="1" data-original="#000000" class=""></path></g></svg>