<svg xmlns="http://www.w3.org/2000/svg" version="1.1" xmlns:xlink="http://www.w3.org/1999/xlink" width="512" height="512" x="0" y="0" viewBox="0 0 48 48" style="enable-background:new 0 0 512 512" xml:space="preserve" class=""><g><path d="M33.723 36.188c-.111-.044-.213-.085-.3-.126s-.228-.1-.365-.154c-.7-.279-1.055-.478-1.055-.792a.743.743 0 0 1 .458-.51 1.785 1.785 0 0 1 1.931.375 1 1 0 1 0 1.219-1.581A4.479 4.479 0 0 0 34 32.6V32a1 1 0 0 0-2 0v.642a3.349 3.349 0 0 0-.424.17A2.669 2.669 0 0 0 30 35.116c0 1.728 1.563 2.351 2.314 2.65.1.04.191.075.265.11.118.055.253.109.4.168.8.322 1.022.489 1.022.778a.743.743 0 0 1-.459.51 1.79 1.79 0 0 1-1.93-.375 1 1 0 0 0-1.222 1.583 4.462 4.462 0 0 0 1.61.794V42a1 1 0 0 0 2 0v-.723a3.381 3.381 0 0 0 .423-.151A2.668 2.668 0 0 0 36 38.822c0-1.722-1.538-2.338-2.277-2.634Z" fill="#002a0e" opacity="1" data-original="#000000" class=""></path><path d="M33 27a10 10 0 1 0 10 10 10.011 10.011 0 0 0-10-10Zm0 18a8 8 0 1 1 8-8 8.009 8.009 0 0 1-8 8ZM16 16a2 2 0 0 0-2-2h-2a2 2 0 0 0-2 2v2a2 2 0 0 0 2 2h2a2 2 0 0 0 2-2Zm-4 2v-2h2v2ZM16 24a2 2 0 0 0-2-2h-2a2 2 0 0 0-2 2v2a2 2 0 0 0 2 2h2a2 2 0 0 0 2-2Zm-4 2v-2h2v2ZM14 30h-2a2 2 0 0 0-2 2v2a2 2 0 0 0 2 2h2a2 2 0 0 0 2-2v-2a2 2 0 0 0-2-2Zm-2 4v-2h2v2Z" fill="#002a0e" opacity="1" data-original="#000000" class=""></path><path d="M21 41H10a3 3 0 0 1-3-3V6a3 3 0 0 1 3-3h18.34a2.988 2.988 0 0 1 .66.081V8a3 3 0 0 0 3 3h4.919a2.988 2.988 0 0 1 .081.66V25a1 1 0 0 0 2 0V11.66a5.035 5.035 0 0 0-1.463-3.537l-5.66-5.66A5.035 5.035 0 0 0 28.34 1H10a5.006 5.006 0 0 0-5 5v32a5.006 5.006 0 0 0 5 5h11a1 1 0 0 0 0-2ZM35.586 9H32a1 1 0 0 1-1-1V4.414Z" fill="#002a0e" opacity="1" data-original="#000000" class=""></path><path d="M24 9a1 1 0 0 0-1-1H11a1 1 0 0 0 0 2h12a1 1 0 0 0 1-1ZM34 17a1 1 0 0 0-1-1H19a1 1 0 0 0 0 2h14a1 1 0 0 0 1-1ZM28.99 25a1 1 0 0 0-1-1H19a1 1 0 0 0 0 2h8.99a1 1 0 0 0 1-1ZM19 32a1 1 0 0 0 0 2h1.63a1 1 0 0 0 0-2Z" fill="#002a0e" opacity="1" data-original="#000000" class=""></path></g></svg>