<svg xmlns="http://www.w3.org/2000/svg" version="1.1" xmlns:xlink="http://www.w3.org/1999/xlink" width="512" height="512" x="0" y="0" viewBox="0 0 64 64" style="enable-background:new 0 0 512 512" xml:space="preserve" class=""><g><path d="M30 52.5H8A4.505 4.505 0 0 1 3.5 48V8c0-2.481 2.019-4.5 4.5-4.5h36c2.481 0 4.5 2.019 4.5 4.5v27a1.5 1.5 0 0 1-3 0V8c0-.827-.673-1.5-1.5-1.5H8c-.827 0-1.5.673-1.5 1.5v40c0 .827.673 1.5 1.5 1.5h22a1.5 1.5 0 1 1 0 3z" fill="#002a0e" opacity="1" data-original="#000000" class=""></path><path d="M18 20h-7a1.5 1.5 0 0 1-1.5-1.5v-7A1.5 1.5 0 0 1 11 10h7a1.5 1.5 0 0 1 1.5 1.5v7A1.5 1.5 0 0 1 18 20zm-5.5-3h4v-4h-4zM18 33h-7a1.5 1.5 0 0 1-1.5-1.5v-7A1.5 1.5 0 0 1 11 23h7a1.5 1.5 0 0 1 1.5 1.5v7A1.5 1.5 0 0 1 18 33zm-5.5-3h4v-4h-4zM18 46h-7a1.5 1.5 0 0 1-1.5-1.5v-7A1.5 1.5 0 0 1 11 36h7a1.5 1.5 0 0 1 1.5 1.5v7A1.5 1.5 0 0 1 18 46zm-5.5-3h4v-4h-4zM41 16.5H23a1.5 1.5 0 1 1 0-3h18a1.5 1.5 0 0 1 0 3zM41 29.5H23a1.5 1.5 0 1 1 0-3h18a1.5 1.5 0 0 1 0 3zM31 42.5h-8a1.5 1.5 0 1 1 0-3h8a1.5 1.5 0 1 1 0 3zM47 60.5c-7.444 0-13.5-6.056-13.5-13.5S39.556 33.5 47 33.5 60.5 39.556 60.5 47 54.444 60.5 47 60.5zm0-24c-5.79 0-10.5 4.71-10.5 10.5S41.21 57.5 47 57.5 57.5 52.79 57.5 47 52.79 36.5 47 36.5z" fill="#002a0e" opacity="1" data-original="#000000" class=""></path><path d="M45.25 52.5a1.5 1.5 0 0 1-1.06-.439l-4.5-4.5a1.5 1.5 0 1 1 2.12-2.121l3.44 3.439 6.94-6.94a1.5 1.5 0 1 1 2.12 2.121l-8 8.001a1.5 1.5 0 0 1-1.06.44z" fill="#002a0e" opacity="1" data-original="#000000" class=""></path></g></svg>