<svg xmlns="http://www.w3.org/2000/svg" version="1.1" xmlns:xlink="http://www.w3.org/1999/xlink" width="512" height="512" x="0" y="0" viewBox="0 0 513 513" style="enable-background:new 0 0 512 512" xml:space="preserve" class=""><g transform="matrix(1,0,0,-1,0,512.5082397460938)"><g fill="#000" fill-rule="evenodd" clip-rule="evenodd"><path d="M464.34 240.254c8.836 0 16 7.164 16 16v112c0 8.837-7.164 16-16 16h-112c-8.837 0-16-7.163-16-16 0-8.836 7.163-16 16-16h96v-96c0-8.836 7.163-16 16-16z" fill="#00b69b" opacity="1" data-original="#000000" class=""></path><path d="M37.026 132.941c6.248-6.249 16.38-6.249 22.628 0l121.37 121.37.001.001a16.002 16.002 0 0 0 22.63 0l.001-.001 50.739-50.739.001-.001a48.002 48.002 0 0 1 67.888 0l.001.001 137.369 137.369c6.248 6.248 6.248 16.379 0 22.627-6.249 6.248-16.379 6.248-22.628 0l-137.37-137.37-.001-.001a16.002 16.002 0 0 0-22.63 0l-.001.001-50.739 50.739a47.998 47.998 0 0 1-67.89 0L37.026 155.568c-6.248-6.248-6.248-16.379 0-22.627z" fill="#00b69b" opacity="1" data-original="#000000" class=""></path></g></g></svg>