<svg xmlns="http://www.w3.org/2000/svg" version="1.1" xmlns:xlink="http://www.w3.org/1999/xlink" width="512" height="512" x="0" y="0" viewBox="0 0 48 48" style="enable-background:new 0 0 512 512" xml:space="preserve" fill-rule="evenodd" class=""><g><path d="m9.293 18.707 2 2a.999.999 0 0 0 1.414 0l4-4a1 1 0 0 0-1.414-1.414L12 18.586l-1.293-1.293a1 1 0 0 0-1.414 1.414zM9.293 26.707l2 2a.999.999 0 0 0 1.414 0l4-4a1 1 0 0 0-1.414-1.414L12 26.586l-1.293-1.293a1 1 0 0 0-1.414 1.414zM9.293 34.707l2 2a.999.999 0 0 0 1.414 0l4-4a1 1 0 0 0-1.414-1.414L12 34.586l-1.293-1.293a1 1 0 0 0-1.414 1.414zM20 17h10a1 1 0 0 0 0-2H20a1 1 0 0 0 0 2zM20 25h6a1 1 0 0 0 0-2h-6a1 1 0 0 0 0 2zM20 21h10a1 1 0 0 0 0-2H20a1 1 0 0 0 0 2zM20 29h2a1 1 0 0 0 0-2h-2a1 1 0 0 0 0 2z" fill="#19a873" opacity="1" data-original="#000000" class=""></path><path d="M39 26.414V42a5 5 0 0 1-5 5H6a5 5 0 0 1-5-5V6a5 5 0 0 1 5-5h28a5 5 0 0 1 5 5v9.586l1.879-1.879a2.996 2.996 0 0 1 4.242 0l1.172 1.172a3 3 0 0 1 0 4.242zm-4 4 2-2V42a3 3 0 0 1-3 3H6a3 3 0 0 1-3-3V6a3 3 0 0 1 3-3h5v2H8a3 3 0 0 0-3 3v32a3 3 0 0 0 3 3h24a3 3 0 0 0 3-3zm-2-8.828V8a1 1 0 0 0-1-1h-3v1a3 3 0 0 1-3 3H14a3 3 0 0 1-3-3V7H8a1 1 0 0 0-1 1v32a1 1 0 0 0 1 1h24a1 1 0 0 0 1-1v-7.586l-3.707 3.707a3 3 0 0 1-2.121.879H24a1 1 0 0 1-1-1v-3.172a3 3 0 0 1 .879-2.121zm-7.936 10.892 2.458 2.458a.987.987 0 0 1-.35.064H25v-2.172c0-.121.022-.239.064-.35zM26.414 31 29 33.586 41.586 21 39 18.414zM37 17.586l-2 2V8a3 3 0 0 0-3-3h-3V3h5a3 3 0 0 1 3 3zm6 2L40.414 17l1.879-1.879a1.002 1.002 0 0 1 1.414 0l1.172 1.172a1.002 1.002 0 0 1 0 1.414zM27 3v5a1 1 0 0 1-1 1H14a1 1 0 0 1-1-1V3z" fill="#19a873" opacity="1" data-original="#000000" class=""></path></g></svg>